{
    "asset" : {
        "generator" : "Khronos glTF Blender I/O v1.3.48",
        "version" : "2.0"
    },
    "scene" : 0,
    "scenes" : [
        {
            "name" : "Scene",
            "nodes" : [
                0
            ]
        }
    ],
    "nodes" : [
        {
            "mesh" : 0,
            "name" : "park"
        }
    ],
    "materials" : [
        {
            "doubleSided" : true,
            "emissiveFactor" : [
                0,
                0,
                0
            ],
            "name" : "park_fence",
            "pbrMetallicRoughness" : {
                "baseColorFactor" : [
                    0.004892315715551376,
                    0.004892315715551376,
                    0.004892315715551376,
                    1
                ],
                "metallicFactor" : 0,
                "roughnessFactor" : 0.20000000298023224
            }
        },
        {
            "doubleSided" : true,
            "emissiveFactor" : [
                0,
                0,
                0
            ],
            "name" : "tree_brown.001",
            "pbrMetallicRoughness" : {
                "baseColorFactor" : [
                    0.13285399973392487,
                    0.06583400070667267,
                    0.046220000833272934,
                    1
                ],
                "metallicFactor" : 0,
                "roughnessFactor" : 1
            }
        },
        {
            "doubleSided" : true,
            "emissiveFactor" : [
                0,
                0,
                0
            ],
            "name" : "tree_green.001",
            "pbrMetallicRoughness" : {
                "baseColorFactor" : [
                    0.14483200013637543,
                    0.15231500566005707,
                    0.07046400010585785,
                    1
                ],
                "metallicFactor" : 0,
                "roughnessFactor" : 1
            }
        },
        {
            "doubleSided" : true,
            "emissiveFactor" : [
                0,
                0,
                0
            ],
            "name" : "tree_rock.001",
            "pbrMetallicRoughness" : {
                "baseColorFactor" : [
                    1,
                    0.7238489985466003,
                    0.5405939817428589,
                    1
                ],
                "metallicFactor" : 0,
                "roughnessFactor" : 1
            }
        },
        {
            "doubleSided" : true,
            "emissiveFactor" : [
                0,
                0,
                0
            ],
            "name" : "park_bench",
            "pbrMetallicRoughness" : {
                "baseColorFactor" : [
                    0.5925629734992981,
                    0.269663006067276,
                    0.11126899719238281,
                    1
                ],
                "metallicFactor" : 0,
                "roughnessFactor" : 0
            }
        },
        {
            "doubleSided" : true,
            "emissiveFactor" : [
                0,
                0,
                0
            ],
            "name" : "street_lamp_black.001",
            "pbrMetallicRoughness" : {
                "baseColorFactor" : [
                    0.018841547891497612,
                    0.018841547891497612,
                    0.018841547891497612,
                    1
                ],
                "metallicFactor" : 0,
                "roughnessFactor" : 0.5
            }
        },
        {
            "doubleSided" : true,
            "emissiveFactor" : [
                0.8000000715255737,
                0.5728230476379395,
                0.28502944111824036
            ],
            "name" : "lamp_lights.001",
            "pbrMetallicRoughness" : {}
        },
        {
            "doubleSided" : true,
            "emissiveFactor" : [
                0,
                0,
                0
            ],
            "name" : "park_path",
            "pbrMetallicRoughness" : {
                "baseColorFactor" : [
                    0.14730599522590637,
                    0.11640600115060806,
                    0.05396300181746483,
                    1
                ],
                "metallicFactor" : 0,
                "roughnessFactor" : 1
            }
        },
        {
            "doubleSided" : true,
            "emissiveFactor" : [
                0,
                0,
                0
            ],
            "name" : "park_grass",
            "pbrMetallicRoughness" : {
                "baseColorFactor" : [
                    0.1855958104133606,
                    0.2140074372291565,
                    0.04695132374763489,
                    1
                ],
                "metallicFactor" : 0,
                "roughnessFactor" : 0.800000011920929
            }
        }
    ],
    "meshes" : [
        {
            "name" : "park",
            "primitives" : [
                {
                    "attributes" : {
                        "POSITION" : 0,
                        "NORMAL" : 1
                    },
                    "indices" : 2,
                    "material" : 0
                },
                {
                    "attributes" : {
                        "POSITION" : 3,
                        "NORMAL" : 4
                    },
                    "indices" : 5,
                    "material" : 1
                },
                {
                    "attributes" : {
                        "POSITION" : 6,
                        "NORMAL" : 7
                    },
                    "indices" : 8,
                    "material" : 2
                },
                {
                    "attributes" : {
                        "POSITION" : 9,
                        "NORMAL" : 10
                    },
                    "indices" : 11,
                    "material" : 3
                },
                {
                    "attributes" : {
                        "POSITION" : 12,
                        "NORMAL" : 13
                    },
                    "indices" : 14,
                    "material" : 4
                },
                {
                    "attributes" : {
                        "POSITION" : 15,
                        "NORMAL" : 16
                    },
                    "indices" : 17,
                    "material" : 5
                },
                {
                    "attributes" : {
                        "POSITION" : 18,
                        "NORMAL" : 19
                    },
                    "indices" : 20,
                    "material" : 6
                },
                {
                    "attributes" : {
                        "POSITION" : 21,
                        "NORMAL" : 22
                    },
                    "indices" : 23,
                    "material" : 7
                },
                {
                    "attributes" : {
                        "POSITION" : 24,
                        "NORMAL" : 25
                    },
                    "indices" : 26,
                    "material" : 8
                }
            ]
        }
    ],
    "accessors" : [
        {
            "bufferView" : 0,
            "componentType" : 5126,
            "count" : 26144,
            "max" : [
                5.619645118713379,
                0.31396353244781494,
                5.619644641876221
            ],
            "min" : [
                -5.619645118713379,
                -0.006219855509698391,
                -5.619644641876221
            ],
            "type" : "VEC3"
        },
        {
            "bufferView" : 1,
            "componentType" : 5126,
            "count" : 26144,
            "type" : "VEC3"
        },
        {
            "bufferView" : 2,
            "componentType" : 5123,
            "count" : 37152,
            "type" : "SCALAR"
        },
        {
            "bufferView" : 3,
            "componentType" : 5126,
            "count" : 4122,
            "max" : [
                5.182113170623779,
                1.0157002210617065,
                5.057295799255371
            ],
            "min" : [
                -5.182113170623779,
                -0.03997008875012398,
                -5.057295799255371
            ],
            "type" : "VEC3"
        },
        {
            "bufferView" : 4,
            "componentType" : 5126,
            "count" : 4122,
            "type" : "VEC3"
        },
        {
            "bufferView" : 5,
            "componentType" : 5123,
            "count" : 11070,
            "type" : "SCALAR"
        },
        {
            "bufferView" : 6,
            "componentType" : 5126,
            "count" : 3240,
            "max" : [
                5.410287857055664,
                1.5491886138916016,
                5.343164443969727
            ],
            "min" : [
                -5.410287857055664,
                -0.03997008875012398,
                -5.343164443969727
            ],
            "type" : "VEC3"
        },
        {
            "bufferView" : 7,
            "componentType" : 5126,
            "count" : 3240,
            "type" : "VEC3"
        },
        {
            "bufferView" : 8,
            "componentType" : 5123,
            "count" : 15552,
            "type" : "SCALAR"
        },
        {
            "bufferView" : 9,
            "componentType" : 5126,
            "count" : 342,
            "max" : [
                4.853360652923584,
                0.20300327241420746,
                4.9089765548706055
            ],
            "min" : [
                -4.853360652923584,
                -0.03997008875012398,
                -4.9089765548706055
            ],
            "type" : "VEC3"
        },
        {
            "bufferView" : 10,
            "componentType" : 5126,
            "count" : 342,
            "type" : "VEC3"
        },
        {
            "bufferView" : 11,
            "componentType" : 5123,
            "count" : 1674,
            "type" : "SCALAR"
        },
        {
            "bufferView" : 12,
            "componentType" : 5126,
            "count" : 348,
            "max" : [
                1.3523437976837158,
                0.22959302365779877,
                1.305694580078125
            ],
            "min" : [
                -1.3523437976837158,
                -0.003978855907917023,
                -1.305694580078125
            ],
            "type" : "VEC3"
        },
        {
            "bufferView" : 13,
            "componentType" : 5126,
            "count" : 348,
            "type" : "VEC3"
        },
        {
            "bufferView" : 14,
            "componentType" : 5123,
            "count" : 528,
            "type" : "SCALAR"
        },
        {
            "bufferView" : 15,
            "componentType" : 5126,
            "count" : 3444,
            "max" : [
                1.6817004680633545,
                1.3507254123687744,
                1.7759125232696533
            ],
            "min" : [
                -1.6817004680633545,
                0,
                -1.7759125232696533
            ],
            "type" : "VEC3"
        },
        {
            "bufferView" : 16,
            "componentType" : 5126,
            "count" : 3444,
            "type" : "VEC3"
        },
        {
            "bufferView" : 17,
            "componentType" : 5123,
            "count" : 14208,
            "type" : "SCALAR"
        },
        {
            "bufferView" : 18,
            "componentType" : 5126,
            "count" : 272,
            "max" : [
                1.6705197095870972,
                1.1888573169708252,
                1.764731764793396
            ],
            "min" : [
                -1.6705197095870972,
                1.15824294090271,
                -1.764731764793396
            ],
            "type" : "VEC3"
        },
        {
            "bufferView" : 19,
            "componentType" : 5126,
            "count" : 272,
            "type" : "VEC3"
        },
        {
            "bufferView" : 20,
            "componentType" : 5123,
            "count" : 1152,
            "type" : "SCALAR"
        },
        {
            "bufferView" : 21,
            "componentType" : 5126,
            "count" : 444,
            "max" : [
                5.682614803314209,
                0.023194849491119385,
                5.682614803314209
            ],
            "min" : [
                -5.682614803314209,
                -2.2013267653164803e-08,
                -5.682614803314209
            ],
            "type" : "VEC3"
        },
        {
            "bufferView" : 22,
            "componentType" : 5126,
            "count" : 444,
            "type" : "VEC3"
        },
        {
            "bufferView" : 23,
            "componentType" : 5123,
            "count" : 768,
            "type" : "SCALAR"
        },
        {
            "bufferView" : 24,
            "componentType" : 5126,
            "count" : 4,
            "max" : [
                5.301612854003906,
                0,
                5.301612854003906
            ],
            "min" : [
                -5.301612854003906,
                0,
                -5.301612854003906
            ],
            "type" : "VEC3"
        },
        {
            "bufferView" : 25,
            "componentType" : 5126,
            "count" : 4,
            "type" : "VEC3"
        },
        {
            "bufferView" : 26,
            "componentType" : 5123,
            "count" : 6,
            "type" : "SCALAR"
        }
    ],
    "bufferViews" : [
        {
            "buffer" : 0,
            "byteLength" : 313728,
            "byteOffset" : 0
        },
        {
            "buffer" : 0,
            "byteLength" : 313728,
            "byteOffset" : 313728
        },
        {
            "buffer" : 0,
            "byteLength" : 74304,
            "byteOffset" : 627456
        },
        {
            "buffer" : 0,
            "byteLength" : 49464,
            "byteOffset" : 701760
        },
        {
            "buffer" : 0,
            "byteLength" : 49464,
            "byteOffset" : 751224
        },
        {
            "buffer" : 0,
            "byteLength" : 22140,
            "byteOffset" : 800688
        },
        {
            "buffer" : 0,
            "byteLength" : 38880,
            "byteOffset" : 822828
        },
        {
            "buffer" : 0,
            "byteLength" : 38880,
            "byteOffset" : 861708
        },
        {
            "buffer" : 0,
            "byteLength" : 31104,
            "byteOffset" : 900588
        },
        {
            "buffer" : 0,
            "byteLength" : 4104,
            "byteOffset" : 931692
        },
        {
            "buffer" : 0,
            "byteLength" : 4104,
            "byteOffset" : 935796
        },
        {
            "buffer" : 0,
            "byteLength" : 3348,
            "byteOffset" : 939900
        },
        {
            "buffer" : 0,
            "byteLength" : 4176,
            "byteOffset" : 943248
        },
        {
            "buffer" : 0,
            "byteLength" : 4176,
            "byteOffset" : 947424
        },
        {
            "buffer" : 0,
            "byteLength" : 1056,
            "byteOffset" : 951600
        },
        {
            "buffer" : 0,
            "byteLength" : 41328,
            "byteOffset" : 952656
        },
        {
            "buffer" : 0,
            "byteLength" : 41328,
            "byteOffset" : 993984
        },
        {
            "buffer" : 0,
            "byteLength" : 28416,
            "byteOffset" : 1035312
        },
        {
            "buffer" : 0,
            "byteLength" : 3264,
            "byteOffset" : 1063728
        },
        {
            "buffer" : 0,
            "byteLength" : 3264,
            "byteOffset" : 1066992
        },
        {
            "buffer" : 0,
            "byteLength" : 2304,
            "byteOffset" : 1070256
        },
        {
            "buffer" : 0,
            "byteLength" : 5328,
            "byteOffset" : 1072560
        },
        {
            "buffer" : 0,
            "byteLength" : 5328,
            "byteOffset" : 1077888
        },
        {
            "buffer" : 0,
            "byteLength" : 1536,
            "byteOffset" : 1083216
        },
        {
            "buffer" : 0,
            "byteLength" : 48,
            "byteOffset" : 1084752
        },
        {
            "buffer" : 0,
            "byteLength" : 48,
            "byteOffset" : 1084800
        },
        {
            "buffer" : 0,
            "byteLength" : 12,
            "byteOffset" : 1084848
        }
    ],
    "buffers" : [
        {
            "byteLength" : 1084860,
            "uri" : "data:application/octet-stream;base64,"
        }
    ]
}
